<?xml version="1.0" encoding="utf-8"?>
<!-- Generator: Adobe Illustrator 25.2.3, SVG Export Plug-In . SVG Version: 6.00 Build 0)  -->
<svg version="1.1" id="Layer_1" xmlns="http://www.w3.org/2000/svg" xmlns:xlink="http://www.w3.org/1999/xlink" x="0px" y="0px"
	 viewBox="0 0 300 300" style="enable-background:new 0 0 300 300;" xml:space="preserve">
<style type="text/css">
	.st0{fill:#004F9E;}
</style>
<g>
	<g>
		<g>
			<path class="st0" d="M193.3,100.5l-86.4,0l0,12.1h5.2l-1.6,43.2l-3.6,0l0,6l86.4,0l0-6l-4.7,0l-1.6-43.2l6.3,0L193.3,100.5z
				 M140.3,155.7h-10.1l-1.6-43.1h13.3L140.3,155.7z M170,155.7h-10.1l-1.6-43.1h13.3L170,155.7z"/>
			<polygon class="st0" points="150.1,75.4 117.9,94.5 182.3,94.5 			"/>
		</g>
	</g>
	<g>
		<path class="st0" d="M10.6,186.9h17.7c3,0,5.4,0.9,7.1,2.6c1.7,1.7,2.5,4,2.5,6.9c0,1.4-0.2,2.6-0.5,3.6c-0.4,1-0.9,1.8-1.5,2.4
			c-0.6,0.6-1.3,1.1-2.1,1.4c-0.8,0.3-1.7,0.5-2.6,0.5v0.3c0.9,0,1.8,0.2,2.7,0.5c1,0.3,1.8,0.8,2.6,1.5c0.8,0.7,1.5,1.6,2,2.7
			c0.5,1.1,0.8,2.4,0.8,4c0,1.5-0.2,2.8-0.7,4.1c-0.5,1.3-1.1,2.4-2,3.4c-0.8,1-1.8,1.7-3,2.3c-1.1,0.6-2.4,0.8-3.8,0.8H10.6V186.9z
			 M18.5,202.1h7.9c1,0,1.9-0.3,2.4-0.9c0.6-0.6,0.9-1.4,0.9-2.5v-1.6c0-1.1-0.3-1.9-0.9-2.5c-0.6-0.6-1.4-0.9-2.4-0.9h-7.9V202.1z
			 M18.5,217.2h9.1c1,0,1.9-0.3,2.5-0.9c0.6-0.6,0.9-1.4,0.9-2.5V212c0-1.1-0.3-1.9-0.9-2.5c-0.6-0.6-1.4-0.9-2.5-0.9h-9.1V217.2z"
			/>
		<path class="st0" d="M59.9,224.6c-2.4,0-4.6-0.4-6.6-1.2c-2-0.8-3.7-2-5.1-3.6c-1.4-1.6-2.5-3.6-3.2-6c-0.8-2.4-1.1-5.2-1.1-8.3
			c0-3.2,0.4-5.9,1.1-8.3c0.8-2.4,1.8-4.4,3.2-6c1.4-1.6,3.1-2.8,5.1-3.6c2-0.8,4.2-1.2,6.6-1.2c2.4,0,4.6,0.4,6.6,1.2
			c2,0.8,3.7,2,5.1,3.6c1.4,1.6,2.5,3.6,3.2,6c0.8,2.4,1.1,5.2,1.1,8.3c0,3.2-0.4,5.9-1.1,8.3c-0.8,2.4-1.8,4.4-3.2,6
			c-1.4,1.6-3.1,2.8-5.1,3.6S62.3,224.6,59.9,224.6z M59.9,217.5c2.4,0,4.3-0.8,5.6-2.4c1.3-1.6,2-3.9,2-6.9v-5.5c0-3-0.7-5.3-2-6.9
			c-1.3-1.6-3.2-2.4-5.6-2.4c-2.4,0-4.3,0.8-5.6,2.4c-1.3,1.6-2,3.9-2,6.9v5.5c0,3,0.7,5.3,2,6.9C55.7,216.7,57.5,217.5,59.9,217.5z
			"/>
		<path class="st0" d="M94.1,224.6c-3.2,0-5.9-0.6-8.1-1.7c-2.2-1.1-4.1-2.6-5.7-4.3l5.2-5.4c2.5,2.8,5.5,4.2,9.1,4.2
			c1.9,0,3.4-0.4,4.3-1.2c0.9-0.8,1.4-1.9,1.4-3.2c0-1-0.3-1.9-0.8-2.6c-0.6-0.7-1.7-1.2-3.4-1.4l-3.6-0.5c-3.9-0.5-6.7-1.7-8.5-3.6
			c-1.8-1.9-2.7-4.4-2.7-7.5c0-1.7,0.3-3.2,0.9-4.6c0.6-1.4,1.5-2.6,2.7-3.6c1.2-1,2.6-1.8,4.3-2.3c1.7-0.6,3.6-0.8,5.8-0.8
			c2.7,0,5.2,0.4,7.2,1.3c2.1,0.9,3.9,2.2,5.4,3.9l-5.3,5.4c-0.9-1-1.9-1.9-3.2-2.5c-1.2-0.6-2.8-1-4.7-1c-1.8,0-3.1,0.3-4,0.9
			c-0.9,0.6-1.3,1.5-1.3,2.6c0,1.3,0.3,2.2,1,2.7c0.7,0.6,1.8,1,3.3,1.2l3.6,0.6c3.8,0.6,6.5,1.8,8.3,3.5s2.7,4.3,2.7,7.5
			c0,1.8-0.3,3.4-0.9,4.9c-0.6,1.5-1.5,2.8-2.7,3.8c-1.2,1.1-2.7,1.9-4.5,2.5C98.4,224.4,96.4,224.6,94.1,224.6z"/>
		<path class="st0" d="M137.3,224l-2.6-8.8h-12.1l-2.6,8.8h-8l12-37.2h9.8l11.8,37.2H137.3z M128.7,194.2h-0.3l-4,14.1h8.3
			L128.7,194.2z"/>
		<path class="st0" d="M172.1,218.1h-0.3c-0.3,1.9-1.2,3.4-2.8,4.7c-1.6,1.2-3.8,1.9-6.5,1.9c-2.1,0-4-0.4-5.8-1.2
			c-1.8-0.8-3.4-2-4.7-3.6c-1.4-1.6-2.4-3.6-3.2-6c-0.8-2.4-1.1-5.1-1.1-8.3c0-3.1,0.4-5.9,1.2-8.3c0.8-2.4,1.9-4.4,3.4-6.1
			c1.4-1.6,3.2-2.9,5.2-3.7c2-0.9,4.3-1.3,6.7-1.3c3.3,0,6.1,0.7,8.4,2.2c2.4,1.4,4.2,3.6,5.6,6.5l-6.5,3.8
			c-0.6-1.5-1.4-2.7-2.6-3.7c-1.2-1-2.8-1.5-5-1.5c-2.5,0-4.4,0.7-5.9,2.2c-1.5,1.5-2.2,3.7-2.2,6.9v6c0,3.1,0.7,5.4,2.2,6.8
			c1.5,1.5,3.4,2.2,5.9,2.2c1,0,1.9-0.1,2.8-0.3c0.9-0.2,1.6-0.6,2.3-1.1c0.7-0.5,1.2-1.1,1.5-1.7c0.4-0.7,0.5-1.5,0.5-2.4v-1.9
			h-6.8v-6.8h14.3V224h-6.7V218.1z"/>
		<path class="st0" d="M201,224.6c-2.4,0-4.6-0.4-6.6-1.2s-3.7-2-5.1-3.6c-1.4-1.6-2.5-3.6-3.2-6s-1.1-5.2-1.1-8.3
			c0-3.2,0.4-5.9,1.1-8.3s1.8-4.4,3.2-6c1.4-1.6,3.1-2.8,5.1-3.6c2-0.8,4.2-1.2,6.6-1.2c2.4,0,4.6,0.4,6.6,1.2c2,0.8,3.7,2,5.1,3.6
			c1.4,1.6,2.5,3.6,3.2,6c0.8,2.4,1.1,5.2,1.1,8.3c0,3.2-0.4,5.9-1.1,8.3c-0.8,2.4-1.8,4.4-3.2,6c-1.4,1.6-3.1,2.8-5.1,3.6
			C205.6,224.2,203.4,224.6,201,224.6z M201,217.5c2.4,0,4.3-0.8,5.6-2.4c1.3-1.6,2-3.9,2-6.9v-5.5c0-3-0.7-5.3-2-6.9
			c-1.3-1.6-3.2-2.4-5.6-2.4c-2.4,0-4.3,0.8-5.6,2.4c-1.3,1.6-2,3.9-2,6.9v5.5c0,3,0.7,5.3,2,6.9C196.8,216.7,198.6,217.5,201,217.5
			z"/>
		<path class="st0" d="M231.6,224h-7.9v-37.2h17.2c1.7,0,3.2,0.3,4.5,0.9c1.4,0.6,2.5,1.4,3.5,2.4c1,1,1.7,2.3,2.2,3.8
			c0.5,1.5,0.8,3.1,0.8,4.8c0,2.5-0.5,4.7-1.6,6.6c-1.1,1.9-2.8,3.2-5,4.1l7.1,14.6h-8.8l-6.4-13.6h-5.7V224z M239.9,203.6
			c1.2,0,2.1-0.3,2.8-0.9c0.7-0.6,1-1.5,1-2.7v-2.3c0-1.2-0.3-2.1-1-2.7c-0.7-0.6-1.6-0.9-2.8-0.9h-8.3v9.7H239.9z"/>
		<path class="st0" d="M281.2,224l-2.6-8.8h-12.1l-2.6,8.8h-8l12-37.2h9.8l11.8,37.2H281.2z M272.6,194.2h-0.3l-4,14.1h8.3
			L272.6,194.2z"/>
	</g>
</g>
</svg>
